<?xml version="1.0" standalone="no"?>
<!DOCTYPE svg PUBLIC "-//W3C//DTD SVG 20010904//EN"
 "http://www.w3.org/TR/2001/REC-SVG-20010904/DTD/svg10.dtd">
<svg version="1.0" xmlns="http://www.w3.org/2000/svg"
 width="222.000000pt" height="222.000000pt" viewBox="0 0 222.000000 222.000000"
 preserveAspectRatio="xMidYMid meet">
<metadata>
Created by potrace 1.11, written by Peter Selinger 2001-2013
</metadata>
<g transform="translate(0.000000,222.000000) scale(0.100000,-0.100000)"
fill="#000000" stroke="none">
<path d="M935 2199 c-94 -14 -202 -48 -310 -100 -319 -151 -548 -453 -609
-801 -17 -96 -15 -310 4 -402 14 -72 63 -214 98 -281 133 -264 391 -479 672
-559 120 -35 140 -37 285 -41 215 -5 384 37 567 142 l78 45 -71 84 c-39 46
-74 84 -78 84 -4 0 -33 -14 -64 -30 -248 -135 -576 -136 -817 -3 -378 209
-552 640 -420 1043 107 326 388 557 728 598 357 42 714 -150 875 -473 34 -67
65 -147 73 -190 2 -11 8 -42 13 -70 6 -27 9 -102 7 -165 -6 -167 -36 -249
-106 -285 -63 -32 -147 -9 -187 51 -15 23 -18 53 -20 172 -1 79 -4 158 -7 176
-55 336 -384 543 -712 447 -128 -37 -273 -161 -333 -285 -109 -226 -60 -486
124 -654 205 -188 507 -196 727 -19 l38 30 42 -45 c56 -58 100 -84 178 -104
100 -25 194 -8 288 53 109 73 169 185 189 358 46 403 -119 781 -448 1025 -133
99 -314 173 -484 199 -74 11 -239 11 -320 0z m295 -787 c70 -31 126 -85 162
-159 27 -56 32 -76 32 -142 1 -67 -4 -86 -32 -144 -36 -72 -86 -122 -161 -159
-69 -34 -195 -33 -271 3 -69 33 -125 88 -159 159 -22 47 -26 68 -26 145 0 79
4 96 27 140 46 83 92 126 174 161 50 21 70 24 134 20 44 -2 94 -12 120 -24z"/>
</g>
</svg>
